Language: Spanish
Subtitles: English, Romanian and Portuguese (.srt)
 
http://www.imdb.com/title/tt0106251/


Juan (Imanol Arias) speaks Catalan and Spanish. He was active in political protests under the Franco regime. He is an astonishingly bad accordian player, and an acceptable ventriloquist, which enables him to scratch a living from the streets as an itinerant musician/entertainer. A long time ago, he met an aristocratic young woman (Ornella Muti) at a sit-in at an art gallery and married her. She has long since divorced him, but he still yearns for her. Juan was injured in a random terrorist incident, and now affects costumes that evoke the Phantom of the Opera and other famous mutilated men. He has minor encounters with women, but he is still seeking some way to come back into his former wife's life again.


      Format : Matroska
      File size : 1.28 GiB
      Duration : 1h 36mn
      Overall bit rate : 1 894 Kbps
      Encoded date : UTC 2011-04-11 06:18:22
      Writing application : mkvmerge v3.0.0 ('Hang up your Hang-Ups') built on Dec 12 2009 15:20:35
      Writing library : libebml v0.7.9 + libmatroska v0.8.1
   Video #1
      ID : 1
      Format : AVC
      Format/Info : Advanced Video Codec
      Format profile : High@L4.1
      Format settings, CABAC : Yes
      Format settings, ReFrames : 6 frames
      Muxing mode : Container profile=Unknown@4.1
      Codec ID : V_MPEG4/ISO/AVC
      Duration : 1h 36mn
      Bit rate : 1 664 Kbps
      Nominal bit rate : 1 700 Kbps
      Width : 712 pixels
      Height : 392 pixels
      Display aspect ratio : 16:9
      Frame rate : 25.000 fps
      Resolution : 24 bits
      Colorimetry : 4:2:0
      Scan type : Progressive
      Bits/(Pixel*Frame) : 0.238
      Stream size : 1.12 GiB (88%)
      Writing library : x264 core 114 r1924 08d04a4
      Encoding settings : cabac=1 / ref=7 / deblock=1:-2:-2 / analyse=0x3:0x113 / me=umh / subme=10 / psy=1 / psy_rd=1.00:0.00 / mixed_ref=1 / me_range=64 / chroma_me=1 / trellis=2 / 8x8dct=1 / cqm=0 / deadzone=21,11 / fast_pskip=0 / chroma_qp_offset=-2 / threads=6 / sliced_threads=0 / nr=0 / decimate=1 / interlaced=0 / constrained_intra=0 / bframes=10 / b_pyramid=1 / b_adapt=2 / b_bias=0 / direct=3 / weightb=1 / open_gop=0 / weightp=2 / keyint=250 / keyint_min=25 / scenecut=40 / intra_refresh=0 / rc_lookahead=64 / rc=2pass / mbtree=1 / bitrate=1700 / ratetol=1.0 / qcomp=0.60 / qpmin=10 / qpmax=51 / qpstep=4 / cplxblur=20.0 / qblur=0.5 / ip_ratio=1.40 / aq=1:1.00
      Language : English
   Audio #2
      ID : 2
      Format : AC-3
      Format/Info : Audio Coding 3
      Codec ID : A_AC3
      Duration : 1h 36mn
      Bit rate mode : Constant
      Bit rate : 192 Kbps
      Channel(s) : 2 channels
      Channel positions : L R
      Sampling rate : 48.0 KHz
      Stream size : 133 MiB (10%)
      Language : Spanish